# xmcd
#
# Track frame offsets:
#	150
#	13054
#	22885
#	39062
#	51911
#	63170
#	80686
#	94680
#	107726
#	121208
#
# Disc length: 1787 seconds
#
# Revision: 3853270091
# Processed by: cddbd v1.5.2PL0 Copyright (c) Steve Scherf et al.
# Submitted via: EZCDAudioConverter 8.0.7.1
#
DISCID=7006f90a
DTITLE=Merle Haggard - Fightin' Side Of Me
DYEAR=2012
DGENRE=Country
TTITLE0=Fightin' Side Of Me
TTITLE1=Mama Tried
TTITLE2=Ramblin' Fever
TTITLE3=Swinging Doors
TTITLE4=(All My Friends Are Gonna Be) Strangers
TTITLE5=I Think I'll Just Stay Here And Drink
TTITLE6=I'm A Lonesome Fugitive
TTITLE7=Kentucky Gambler
TTITLE8=Cherokee Maiden
TTITLE9=Misery And Gin
EXTD=
EXTT0=
EXTT1=
EXTT2=
EXTT3=
EXTT4=
EXTT5=
EXTT6=
EXTT7=
EXTT8=
EXTT9=
PLAYORDER=
